<svg xmlns="http://www.w3.org/2000/svg" version="1.1" xmlns:xlink="http://www.w3.org/1999/xlink" width="1000" height="1000"><style>
    #light-icon {
      display: inline;
    }
    #dark-icon {
      display: none;
    }

    @media (prefers-color-scheme: dark) {
      #light-icon {
        display: none;
      }
      #dark-icon {
        display: inline;
      }
    }
  </style><g id="light-icon"><svg xmlns="http://www.w3.org/2000/svg" version="1.1" xmlns:xlink="http://www.w3.org/1999/xlink" width="1000" height="1000"><g><g transform="matrix(15.625,0,0,15.625,0,0)"><svg xmlns="http://www.w3.org/2000/svg" version="1.1" xmlns:xlink="http://www.w3.org/1999/xlink" width="64" height="64"><svg id="Layer_1" xmlns="http://www.w3.org/2000/svg" version="1.1" viewBox="0 0 64 64">
  <!-- Generator: Adobe Illustrator 29.6.0, SVG Export Plug-In . SVG Version: 2.1.1 Build 207)  -->
  <defs>
    <style>
      .st0 {
        fill: #6cc58d;
      }

      .st1 {
        fill: #16a34a;
        fill-rule: evenodd;
      }
    </style>
  </defs>
  <path class="st1" d="M35.2,13.89c-2.1,0-4.18.43-6.12,1.27-1.94.84-3.71,2.07-5.19,3.62-1.49,1.55-2.66,3.39-3.47,5.42-.56,1.42-.94,2.91-1.11,4.43-.14,1.2-.76,2.3-1.79,2.84l-3.04,1.59c-1.03.54-1.7,1.64-1.57,2.84.17,1.52.54,3.01,1.11,4.43.8,2.03,1.98,3.87,3.47,5.42,1.49,1.55,3.25,2.78,5.19,3.62,1.94.84,4.02,1.27,6.12,1.27s4.18-.43,6.12-1.27c1.94-.84,3.71-2.07,5.19-3.62,1.49-1.55,2.66-3.39,3.47-5.42.56-1.42.94-2.91,1.11-4.43.14-1.2.76-2.3,1.79-2.84l3.04-1.59c1.03-.54,1.7-1.64,1.57-2.84-.17-1.52-.54-3.01-1.11-4.43-.8-2.03-1.98-3.87-3.47-5.42-1.49-1.55-3.25-2.78-5.19-3.62-1.94-.84-4.02-1.27-6.12-1.27ZM42.59,27.39c.16.41.29.82.39,1.25.27,1.17-.43,2.29-1.46,2.82l-3.04,1.59c-1.03.54-1.63,1.65-1.9,2.82-.1.43-.23.84-.39,1.25-.4,1.01-.99,1.93-1.73,2.71-.74.78-1.63,1.39-2.6,1.81-.97.42-2.01.64-3.06.64s-2.09-.22-3.06-.64c-.97-.42-1.85-1.04-2.6-1.81-.74-.78-1.33-1.7-1.73-2.71-.16-.41-.29-.82-.39-1.25-.27-1.17.43-2.29,1.46-2.82l3.04-1.59c1.03-.54,1.63-1.65,1.9-2.82.1-.43.23-.84.39-1.25.4-1.01.99-1.93,1.73-2.71.74-.78,1.63-1.39,2.6-1.81.97-.42,2.01-.64,3.06-.64s2.09.22,3.06.64c.97.42,1.85,1.03,2.6,1.81.74.78,1.33,1.7,1.73,2.71Z"></path>
  <path class="st1" d="M35.2.52c-3.78,0-7.53.78-11.02,2.29-3.5,1.51-6.67,3.73-9.35,6.52-2.67,2.79-4.8,6.11-6.24,9.75-1.21,3.04-1.93,6.27-2.13,9.54-.08,1.2-.71,2.3-1.74,2.84l-3.04,1.59c-1.03.54-1.69,1.64-1.62,2.84.21,3.28.92,6.5,2.13,9.54,1.45,3.65,3.57,6.96,6.24,9.76,2.68,2.79,5.85,5.01,9.35,6.52,3.49,1.51,7.24,2.29,11.02,2.29s7.53-.78,11.02-2.29c3.5-1.51,6.67-3.73,9.35-6.52,2.67-2.79,4.8-6.11,6.24-9.76,1.21-3.04,1.93-6.27,2.13-9.54.08-1.2.71-2.3,1.74-2.84l3.04-1.59c1.03-.54,1.69-1.64,1.62-2.84-.21-3.28-.92-6.5-2.13-9.54-1.45-3.65-3.57-6.96-6.24-9.75-2.67-2.79-5.85-5.01-9.35-6.52-3.5-1.51-7.24-2.29-11.02-2.29ZM49.52,35.89c.1-1.2.74-2.3,1.76-2.84l3.04-1.59c1.03-.54,1.7-1.64,1.59-2.84-.19-2.18-.69-4.32-1.5-6.35-1.05-2.63-2.58-5.03-4.51-7.05-1.93-2.02-4.23-3.62-6.75-4.71-2.52-1.09-5.23-1.65-7.96-1.65s-5.44.56-7.96,1.65c-2.52,1.09-4.82,2.69-6.75,4.71-1.93,2.02-3.46,4.41-4.51,7.05-.81,2.03-1.31,4.17-1.5,6.35-.1,1.2-.74,2.3-1.76,2.84l-3.04,1.59c-1.03.54-1.7,1.64-1.59,2.84.19,2.18.69,4.32,1.5,6.35,1.05,2.63,2.58,5.03,4.51,7.05,1.93,2.02,4.23,3.62,6.75,4.71,2.52,1.09,5.23,1.65,7.96,1.65s5.44-.56,7.96-1.65c2.52-1.09,4.82-2.69,6.75-4.71,1.93-2.02,3.46-4.41,4.51-7.05.81-2.03,1.31-4.17,1.5-6.35Z"></path>
  <path class="st0" d="M63.74,29.91h-8.01c-.12.49-.99,1.4-1.41,1.56l-3.22,1.68c-.36.15-1.18,1.06-1.26,1.47h8.01c.19-.59,1.16-1.44,1.43-1.56l3.04-1.59c.44-.16,1.4-1.13,1.41-1.56Z"></path>
  <path class="st0" d="M.24,34.61h8.01c.25-.73,1.16-1.45,1.39-1.55l4.12-2.15c.37-.19.35-.58.37-1.01H6.12c-.03.43-.96,1.4-1.43,1.56l-3.22,1.69c-.37.19-1.23,1.03-1.24,1.46Z"></path>
  <path class="st0" d="M18.95,29.91c-.13.46-1.04,1.43-1.44,1.56l-3.39,1.8c-.37.19-.94.91-1.05,1.34h8.02c.14-.51.94-1.38,1.37-1.55l3.06-1.6c.4-.13,1.4-1.13,1.45-1.56h-8.02Z"></path>
  <path class="st0" d="M42.91,29.91c-.11.48-.97,1.45-1.39,1.56l-3.04,1.59c-.43.15-1.4,1.13-1.45,1.56h8.02c.18-.5.94-1.36,1.44-1.56l3.11-1.62c.45-.18,1.33-1.09,1.33-1.52h-8.02Z"></path>
</svg></svg></g></g></svg></g><g id="dark-icon"><svg xmlns="http://www.w3.org/2000/svg" version="1.1" xmlns:xlink="http://www.w3.org/1999/xlink" width="1000" height="1000"><g clip-path="url(#SvgjsClipPath1127)"><rect width="1000" height="1000" fill="#ffffff"></rect><g transform="matrix(10.9375,0,0,10.9375,150,150)"><svg xmlns="http://www.w3.org/2000/svg" version="1.1" xmlns:xlink="http://www.w3.org/1999/xlink" width="64" height="64"><svg id="Layer_1" xmlns="http://www.w3.org/2000/svg" version="1.1" viewBox="0 0 64 64">
  <!-- Generator: Adobe Illustrator 29.6.0, SVG Export Plug-In . SVG Version: 2.1.1 Build 207)  -->
  <defs>
    <style>
      .st0 {
        fill: #6cc58d;
      }

      .st1 {
        fill: #16a34a;
        fill-rule: evenodd;
      }
    </style>
  <clipPath id="SvgjsClipPath1127"><rect width="1000" height="1000" x="0" y="0" rx="350" ry="350"></rect></clipPath></defs>
  <path class="st1" d="M35.2,13.89c-2.1,0-4.18.43-6.12,1.27-1.94.84-3.71,2.07-5.19,3.62-1.49,1.55-2.66,3.39-3.47,5.42-.56,1.42-.94,2.91-1.11,4.43-.14,1.2-.76,2.3-1.79,2.84l-3.04,1.59c-1.03.54-1.7,1.64-1.57,2.84.17,1.52.54,3.01,1.11,4.43.8,2.03,1.98,3.87,3.47,5.42,1.49,1.55,3.25,2.78,5.19,3.62,1.94.84,4.02,1.27,6.12,1.27s4.18-.43,6.12-1.27c1.94-.84,3.71-2.07,5.19-3.62,1.49-1.55,2.66-3.39,3.47-5.42.56-1.42.94-2.91,1.11-4.43.14-1.2.76-2.3,1.79-2.84l3.04-1.59c1.03-.54,1.7-1.64,1.57-2.84-.17-1.52-.54-3.01-1.11-4.43-.8-2.03-1.98-3.87-3.47-5.42-1.49-1.55-3.25-2.78-5.19-3.62-1.94-.84-4.02-1.27-6.12-1.27ZM42.59,27.39c.16.41.29.82.39,1.25.27,1.17-.43,2.29-1.46,2.82l-3.04,1.59c-1.03.54-1.63,1.65-1.9,2.82-.1.43-.23.84-.39,1.25-.4,1.01-.99,1.93-1.73,2.71-.74.78-1.63,1.39-2.6,1.81-.97.42-2.01.64-3.06.64s-2.09-.22-3.06-.64c-.97-.42-1.85-1.04-2.6-1.81-.74-.78-1.33-1.7-1.73-2.71-.16-.41-.29-.82-.39-1.25-.27-1.17.43-2.29,1.46-2.82l3.04-1.59c1.03-.54,1.63-1.65,1.9-2.82.1-.43.23-.84.39-1.25.4-1.01.99-1.93,1.73-2.71.74-.78,1.63-1.39,2.6-1.81.97-.42,2.01-.64,3.06-.64s2.09.22,3.06.64c.97.42,1.85,1.03,2.6,1.81.74.78,1.33,1.7,1.73,2.71Z"></path>
  <path class="st1" d="M35.2.52c-3.78,0-7.53.78-11.02,2.29-3.5,1.51-6.67,3.73-9.35,6.52-2.67,2.79-4.8,6.11-6.24,9.75-1.21,3.04-1.93,6.27-2.13,9.54-.08,1.2-.71,2.3-1.74,2.84l-3.04,1.59c-1.03.54-1.69,1.64-1.62,2.84.21,3.28.92,6.5,2.13,9.54,1.45,3.65,3.57,6.96,6.24,9.76,2.68,2.79,5.85,5.01,9.35,6.52,3.49,1.51,7.24,2.29,11.02,2.29s7.53-.78,11.02-2.29c3.5-1.51,6.67-3.73,9.35-6.52,2.67-2.79,4.8-6.11,6.24-9.76,1.21-3.04,1.93-6.27,2.13-9.54.08-1.2.71-2.3,1.74-2.84l3.04-1.59c1.03-.54,1.69-1.64,1.62-2.84-.21-3.28-.92-6.5-2.13-9.54-1.45-3.65-3.57-6.96-6.24-9.75-2.67-2.79-5.85-5.01-9.35-6.52-3.5-1.51-7.24-2.29-11.02-2.29ZM49.52,35.89c.1-1.2.74-2.3,1.76-2.84l3.04-1.59c1.03-.54,1.7-1.64,1.59-2.84-.19-2.18-.69-4.32-1.5-6.35-1.05-2.63-2.58-5.03-4.51-7.05-1.93-2.02-4.23-3.62-6.75-4.71-2.52-1.09-5.23-1.65-7.96-1.65s-5.44.56-7.96,1.65c-2.52,1.09-4.82,2.69-6.75,4.71-1.93,2.02-3.46,4.41-4.51,7.05-.81,2.03-1.31,4.17-1.5,6.35-.1,1.2-.74,2.3-1.76,2.84l-3.04,1.59c-1.03.54-1.7,1.64-1.59,2.84.19,2.18.69,4.32,1.5,6.35,1.05,2.63,2.58,5.03,4.51,7.05,1.93,2.02,4.23,3.62,6.75,4.71,2.52,1.09,5.23,1.65,7.96,1.65s5.44-.56,7.96-1.65c2.52-1.09,4.82-2.69,6.75-4.71,1.93-2.02,3.46-4.41,4.51-7.05.81-2.03,1.31-4.17,1.5-6.35Z"></path>
  <path class="st0" d="M63.74,29.91h-8.01c-.12.49-.99,1.4-1.41,1.56l-3.22,1.68c-.36.15-1.18,1.06-1.26,1.47h8.01c.19-.59,1.16-1.44,1.43-1.56l3.04-1.59c.44-.16,1.4-1.13,1.41-1.56Z"></path>
  <path class="st0" d="M.24,34.61h8.01c.25-.73,1.16-1.45,1.39-1.55l4.12-2.15c.37-.19.35-.58.37-1.01H6.12c-.03.43-.96,1.4-1.43,1.56l-3.22,1.69c-.37.19-1.23,1.03-1.24,1.46Z"></path>
  <path class="st0" d="M18.95,29.91c-.13.46-1.04,1.43-1.44,1.56l-3.39,1.8c-.37.19-.94.91-1.05,1.34h8.02c.14-.51.94-1.38,1.37-1.55l3.06-1.6c.4-.13,1.4-1.13,1.45-1.56h-8.02Z"></path>
  <path class="st0" d="M42.91,29.91c-.11.48-.97,1.45-1.39,1.56l-3.04,1.59c-.43.15-1.4,1.13-1.45,1.56h8.02c.18-.5.94-1.36,1.44-1.56l3.11-1.62c.45-.18,1.33-1.09,1.33-1.52h-8.02Z"></path>
</svg></svg></g></g></svg></g></svg>